<svg version="1" xmlns="http://www.w3.org/2000/svg" width="1333.333" height="1333.333" viewBox="0 0 1000.000000 1000.000000"><path d="M108.8 152c-1.6 2.8-2.8 5.2-2.8 5.5.1.3-.6 1.3-1.5 2.1-.8.9-1.5 2.2-1.5 3 0 .8-.4 1.4-1 1.4-.5 0-1 .7-1 1.5s-.4 1.5-.8 1.5-1.3 1.2-1.9 2.7c-.7 1.6-2.8 5.5-4.8 8.8-2 3.3-3.8 6.8-4.2 7.7-.3 1-1 1.8-1.5 1.8s-.6.4-.3 1c.3.5.2 1-.2 1-.5 0-1.6 1.5-2.4 3.2-2.6 5.5-5.4 10.3-6.3 11-.5.3-1.5-.3-2.1-1.5-1.7-3.2-5.5-9.7-7.6-13.2-1.1-1.7-2.2-3.7-2.6-4.5-.3-.8-1.7-3.2-3-5.3-1.3-2-2-3.7-1.6-3.7.5 0 .2-.4-.4-.8-1.2-.8-4-5.4-8.5-14-1.2-2.3-2.6-4.2-3.1-4.2-.4 0-.6-.4-.3-.9s-.1-1.4-.9-2.1c-.8-.7-1.5-1.9-1.5-2.6 0-.8-.5-1.4-1.1-1.4-.5 0-.7-.6-.3-1.3.4-.7.3-.9-.2-.4-1.1 1-1.4 678.7-.3 678.7.4 0 .6.8.5 1.7C45 832.5 54.9 847 58 847c.5 0 1 .4 1 .9 0 .8 6.1 3.4 8.2 3.6.3 0 1 .3 1.4.7.4.5 194.6.8 431.6.8h430.9l5.7-2.7c6-2.8 12.2-7.8 12.2-9.9 0-.6.6-1.4 1.4-1.7.8-.3 2.2-3 3.2-5.9 1.8-5.1 1.9-15.6 2-295.5 0-160.6-.3-290-.8-289.7-.4.3-.6.9-.3 1.3.2.5-.4 1.6-1.5 2.6s-1.7 2.2-1.4 2.6c.3.5 0 .9-.5.9-.6 0-1.1.4-1.1 1 0 .8-2.9 5.9-7.8 13.5-.6 1.1-1.5 2.7-1.9 3.5-1.4 3.3-8.8 15.5-9.8 16.2-.5.4-.6.8-.2.8.5 0-.1 1.3-1.2 2.9-1.1 1.5-2.5 3.9-3.1 5.2-.6 1.3-1.7 3.5-2.4 4.8l-1.4 2.3-1.3-2.3c-1-1.9-1.2-19-1.2-78.2 0-41.7-.4-76-.9-76.3-.7-.5-1.2 1-.9 2.8 0 .5-.4.8-1 .8-.5 0-.7.5-.4 1 .3.5.1 1-.4 1-.6 0-1.1.7-1.1 1.5s-.4 1.5-.9 1.5-1.5 1.6-2.2 3.5c-.7 1.9-1.7 3.5-2.1 3.5-.4 0-.8.7-.8 1.5s-.5 1.5-1.1 1.5c-.5 0-.7.4-.4 1 .3.5.1 1-.4 1-.6 0-1.1.6-1.1 1.3 0 .7-1.1 2.8-2.5 4.7-1.3 1.8-2.2 3.6-2 4 .3.5-.2 1.1-1.1 1.4-.8.3-1.2 1-.9 1.6.3.5.1 1-.4 1-.6 0-1.1.7-1.1 1.5s-.5 1.5-1.2 1.5c-.6 0-.9.3-.5.6.3.3-1 3-2.9 5.9-1.9 3-3.4 5.9-3.4 6.5 0 .5-.5 1-1 1-.6 0-.9.3-.8.7.2 1.2-1.3 4.3-2.2 4.3-.4 0-1-.8-1.3-1.8-.4-.9-1.8-3.5-3.2-5.7-1.4-2.2-3-5.2-3.6-6.8-.6-1.5-1.5-2.7-2-2.7s-.9-.6-.9-1.4c0-.8-.7-2.2-1.6-3-.8-.9-1.3-1.6-1-1.6.3 0-.6-1.6-1.9-3.6-1.3-1.9-2.7-4.4-3-5.5-.4-1-1.1-1.9-1.6-1.9-.6 0-.8-.4-.4-.9.3-.5.1-1.2-.4-1.5-.5-.3-2.1-2.9-3.6-5.8s-3.1-5.5-3.4-5.8c-.4-.3-1.3-2-2-3.8-.8-1.7-1.7-3.2-2.1-3.2-.5 0-1-.8-1.2-1.8-.3-1.2-1.1-.4-2.7 2.8-1.3 2.5-2.9 5.2-3.6 6-.8.8-1.5 1.9-1.6 2.5-.3 1.4-3.2 5.9-4.4 6.7-.5.4-.7.8-.2.8.4 0-.4 1.8-1.8 4s-2.5 4.4-2.5 5c0 .5-.4 1-1 1-.5 0-1 .5-1 1.1 0 1.3-8.2 15.3-9.2 15.7-.5.2-.6.8-.2 1.3.3.5.2.9-.3.9-.4 0-1.4 1.5-2.2 3.2-2.5 5.9-3.2 6.2-5.4 2.6-1.2-1.8-2.1-3.5-2.2-3.8 0-.3-1.3-2.4-2.8-4.7-1.5-2.4-2.7-4.5-2.7-4.7 0-.9-7.5-13.1-8.5-13.8-.5-.4-.7-.8-.2-.8.8 0-4.2-8.1-5.6-9.1-.5-.3-.8-.9-.8-1.3.3-1.7 0-2.6-1.1-3.8-.7-.7-2.4-3.3-3.7-5.8-1.3-2.5-3.1-5.2-3.9-6-.8-.8-1.2-1-.8-.3.3.6.2 1.4-.3 1.7-.5.4-2.6 3.7-4.7 7.4-2 3.7-4.1 6.9-4.6 7-.4.2-.6.7-.3 1.2.3.4-.2 1.3-1 2s-1.5 1.8-1.5 2.5c0 .8-.3 1.5-.7 1.7-.5.1-1.9 2.5-3.3 5.2-1.3 2.7-2.9 5.4-3.5 6-.5.7-2.3 3.7-4 6.9-1.6 3.1-3.4 5.7-3.9 5.7s-.6.3-.3.6c.4.4-.2 1.9-1.2 3.3s-2.1 3.4-2.5 4.5c-.6 1.8-.7 1.7-2.6-.5-1.2-1.2-2.3-3.3-2.6-4.6-.4-1.3-1-2.3-1.5-2.3s-.9-.4-.9-1c0-.5-1.4-3.3-3.1-6.2-1.8-2.9-4.5-7.8-6.2-10.8-1.7-3-3.7-6.6-4.6-8-.9-1.4-2.3-3.7-3.1-5.3-.7-1.5-1.7-2.7-2.1-2.7-.5 0-.6-.7-.3-1.5.4-.8.1-1.5-.4-1.5-.6 0-2.1-2.1-3.4-4.8-3.1-6.4-5.6-8.9-4.9-4.8.1.4-.7 1.5-1.7 2.5-1.1.9-2.3 2.7-2.7 4.1-.4 1.4-1.7 3.3-2.8 4.2-1.1 1-1.7 1.8-1.3 1.8.3 0 0 1.3-.9 3-.9 1.6-2 3-2.6 3-.6 0-.8.4-.5.8.2.4-1.1 3.2-3 6.2-1.8 3-3.4 6.1-3.4 6.7 0 .7-.3 1.3-.7 1.3-.5 0-2.1 2.6-3.8 5.8-1.6 3.1-4 7.1-5.3 8.9-1.3 1.7-2.3 3.4-2.2 3.8 0 .3-.3 1.3-.8 2.2-.8 1.4-1.4 1-3.4-2.3-1.3-2.1-2.8-4.6-3.1-5.4-.4-.8-1.7-3.1-2.8-5-1.2-1.9-3.1-5.3-4.2-7.5-1.2-2.2-2.4-4.2-2.7-4.5-1.1-1-13-22.2-13-23.1 0-.5-.5-.9-1.1-.9-.5 0-.7-.5-.4-1 .3-.6.1-1-.5-1s-.9-.3-.7-.8c.2-.4-.7-1.8-2-3.2-1.3-1.4-2.3-2.1-2.2-1.5.3 1.3-1.2 4.7-2.8 6.3-.7.7-1.3 1.9-1.3 2.6 0 .7-.8 2.1-1.7 3.2-1 1.1-2.7 3.7-3.8 5.9-1.1 2.2-3.4 6.3-5.2 9.2-1.8 2.9-3.3 5.5-3.3 5.8 0 .3-1.1 2.2-2.5 4.2-1.3 2-2.2 4-1.9 4.5.3.4.1.8-.5.8-.5 0-2.2 2.5-3.7 5.5-1.6 3-3.2 5.5-3.7 5.5-.4 0-.6.4-.3.9s-.1 1.4-.8 2c-1.1 1-1.6.8-2.1-.8-.3-1.2-1.1-2.1-1.7-2.1-.6 0-.9-.3-.5-.6.3-.4-.9-3.1-2.8-6-1.9-3-3.5-5.9-3.5-6.4 0-.6-.5-1-1.1-1-.5 0-.7-.5-.4-1 .3-.6.3-1-.2-1-.4 0-1.9-2.3-3.2-5-1.4-2.8-2.9-5-3.5-5-.5 0-.6-.3-.3-.6.4-.4-.2-1.9-1.3-3.4-1.1-1.6-2-3.3-2-3.9 0-.6-.3-1.1-.7-1.1-.5 0-1.7-1.9-2.8-4.3-1.1-2.3-2.3-4.4-2.6-4.7-.3-.3-1.6-2.4-2.8-4.8-2.5-5-3.8-5.3-5.2-1.2-.6 1.6-1.4 3-1.8 3-.4 0-1.3 1.6-2.1 3.5s-1.7 3.5-2.1 3.5c-.4 0-1.1 1-1.5 2.2-.3 1.3-1.2 3-1.9 3.8-.8.8-1.5 2.1-1.7 2.9-.2.8-.9 2.2-1.6 3-.7.9-1.2 2-1.1 2.4 0 .5-1 1.7-2.2 2.8-1.2 1-1.9 1.9-1.5 1.9.4 0-.3 1.8-1.5 4-1.3 2.2-2.7 4-3.1 4-.5 0-.7.4-.3.9.3.5 0 1.5-.7 2.3-.7.7-2.2 3-3.2 5.1-1.1 2-2.3 3.7-2.8 3.7s-.7.4-.4.9c.3.4-.1 1.7-.8 2.7-1.4 1.8-1.5 1.8-2.7-.9-.7-1.5-1.6-2.7-2-2.7-.5 0-.6-.7-.3-1.5.4-.8.1-1.5-.4-1.5-.6 0-1.9-1.7-2.8-3.8-1-2-2.8-5.1-4.1-6.8-1.3-1.7-2-3.4-1.6-3.7.3-.4.1-.7-.5-.7-.7 0-1.2-.7-1.2-1.5s-.5-1.5-1.1-1.5c-.5 0-.8-.4-.4-.9.3-.5.1-1.2-.4-1.6-.5-.3-1.6-1.8-2.4-3.3-.8-1.5-2.4-4.4-3.5-6.5-1.1-2.1-2.6-4.4-3.2-5.2-.7-.8-.9-1.5-.4-1.5s.4-.4-.2-.8c-1.2-.8-5.9-8.3-5.9-9.5 0-.4-.4-.7-.9-.6-.5 0-1.3-.5-1.7-1.3-.6-.9-.9-.8-.9.7 0 1.1-1.1 3.7-2.5 5.6-1.3 2-2.1 3.9-1.8 4.3.4.3.1.6-.5.6-.7 0-1.2.7-1.2 1.5s-.3 1.5-.8 1.5c-.4 0-1.5 1.7-2.5 3.7-1.9 4.1-3.2 6.5-5.9 10.2-1 1.3-1.5 2.7-1.2 3.2.3.5 0 .9-.5.9-.6 0-1.1.6-1.1 1.4 0 .8-.7 1.7-1.6 2-.9.4-1.4.9-1.1 1.2.3.3-.7 2.7-2.3 5.2-1.6 2.6-4.1 7.1-5.6 9.9-1.6 2.9-3.1 5.3-3.4 5.3-.3 0-1-1-1.6-2.3-3.5-6.9-6.1-11.3-7.4-12.4-.8-.7-1-1.3-.5-1.3.6 0 .6-.3-.1-.8-.5-.4-1.8-2.3-2.8-4.2-.9-1.9-3.2-6-5.1-9-1.9-3-3.4-6.1-3.5-6.8 0-.6-.4-1.2-.9-1.2s-1.5-1.6-2.2-3.5c-.7-1.9-1.7-3.5-2.1-3.5-.4 0-.8-.5-.8-1.1 0-.6-.9-2.4-2.1-4-1.1-1.6-1.8-2.9-1.5-2.9.3 0-.2-.9-1.1-1.9-1.5-1.9-4.9-1.8-3.7 0 .3.5-.1 1.2-.9 1.5-.7.2-1.4 1-1.4 1.7s-1.2 3.1-2.6 5.4c-1.5 2.4-2.7 4.7-2.7 5.2 0 .6-.8 1.5-1.7 2-1 .6-1.5 1.1-1.1 1.1.4 0-.6 2.2-2.2 5-1.6 2.7-2.6 5-2.2 5 .4 0-.1.5-1 1.1-1 .5-1.8 1.6-1.8 2.3 0 .8-.7 1.9-1.5 2.6-.8.7-1.5 2.1-1.5 3 0 1-.3 2-.8 2.2-.9.4-8.2 12.6-8.2 13.7 0 .5-.6 1.4-1.3 2-1.1.9-1.8.3-3.3-2.7-1-2-2.1-3.9-2.4-4.2-.5-.5-1.4-2-5.2-8.9-1.1-2-2.4-4-2.9-4.6-.5-.5-.9-1.7-.9-2.8 0-1-.4-1.6-.9-1.3-.5.3-1.2-.5-1.5-1.8-.3-1.4-1.2-3.1-1.9-3.8-.6-.7-1.9-2.7-2.7-4.3-.8-1.7-2.3-4.4-3.5-6-1.1-1.7-2-3.2-2-3.5-.1-.3-1.2-2.3-2.6-4.5-1.5-2.2-3-5.1-3.4-6.4l-.7-2.4-1.9 2.4c-1 1.3-1.9 3-1.9 3.7 0 .7-.5 1-1 .7-.6-.4-1-.3-.9.2.3 1.9-.2 3.3-1.8 4.9-.9.9-1.8 2.5-2 3.6-.2 1-1.1 2.8-2.2 3.9-1 1.1-2.7 3.9-3.7 6.2-1 2.3-2.1 4.4-2.5 4.7-.6.5-12.3 20.6-14.7 25.4-1.4 2.8-1.6 2.8-2.8 1-.7-1-1.8-2.5-2.4-3.2-.6-.6-.8-1.2-.5-1.2.3 0-.6-1.7-2-3.7-1.4-2.1-2.5-4.3-2.5-5 0-.7-.4-1.3-.9-1.3s-1.1-.8-1.4-1.8c-.4-.9-1.8-3.7-3.3-6.2-1.5-2.5-4.1-7-5.7-10-1.7-3-3.7-6.1-4.4-6.8-.7-.8-1.1-1.8-.8-2.3.4-.5.1-.9-.4-.9-.6 0-1.1-.6-1.1-1.3 0-.7-.8-2.2-1.7-3.3-1-1.1-1.9-2.6-2.1-3.4-.2-.8-.8-1.7-1.3-1.8-.5-.2-.7-.8-.3-1.3.3-.5 0-.9-.6-.9s-.8-.4-.5-1c.3-.6-.1-.7-.9-.4-.9.3-1.4.9-1.1 1.4.2.4-.4 1.6-1.5 2.8-1.1 1.1-2.2 3.2-2.6 4.6-.3 1.4-1 2.6-1.6 2.6-.5 0-.6.4-.3 1 .3.5.2 1-.4 1-.6 0-1.8 1.7-2.8 3.7-.9 2.1-2 4-2.3 4.3-.3.3-1.4 2.1-2.3 4-1 1.9-2.8 5.1-4 7.1-1.2 2-4.8 8.2-8 13.7-3.2 5.6-6.2 10.4-6.6 10.7-.5.2-1.6-1.3-2.5-3.5-.9-2.2-2.1-4-2.7-4-.5 0-.7-.5-.4-1 .3-.6.2-1-.3-1-.4 0-1.4-1.6-2.2-3.5-.8-1.9-1.7-3.5-2.2-3.5-.4 0-.8-.6-.8-1.4 0-.7-.9-2.5-2-3.8-1-1.4-1.6-2.8-1.3-3.2.3-.3.1-.6-.6-.6s-.9-.5-.6-1c.3-.6.2-1-.4-1-.5 0-1.7-1.8-2.7-4-1-2.2-2.1-4-2.6-4-.4 0-.8-.9-.8-2s-.4-2-.8-2-2-2.4-3.6-5.3c-6.1-11.4-7.4-13.3-8.2-11.3-.4 1-3 5.8-5.9 10.5-2.8 4.7-5.4 9.3-5.8 10.1-.4.8-1.8 3.3-3.2 5.5-1.3 2.2-2.8 4.9-3.4 6-.5 1.1-1.9 3.3-3 4.9-1.1 1.7-1.8 3.3-1.5 3.8.3.4.1.8-.3.8-.5 0-2.2 2.5-3.8 5.5-1.7 3-3.4 5.5-3.8 5.5-.5 0-.6.4-.3.9s0 1.4-.7 1.9c-1 .9-1.8.2-3.2-2.6-1.1-2-2.3-3.9-2.6-4.2-.3-.3-2.1-3.4-4-7s-3.7-6.7-4.1-6.8c-.5-.2-.8-1-.8-1.8s-.4-1.4-1-1.4c-.5 0-1-.6-1-1.4 0-.7-.9-2.5-2-3.8-1-1.4-1.6-2.8-1.3-3.2.3-.3 0-.6-.7-.6s-1.1-.3-.7-.6c.3-.3-.2-1.4-1.1-2.5-.9-1.1-1.7-2.3-1.7-2.7 0-.4-1-2.1-2.1-3.7-1.2-1.7-2.3-3.5-2.5-4-.1-.6-1.6-3.2-3.3-5.9-2.6-4.4-3.4-4.7-3.9-1.9-.1.5-.8 1.6-1.7 2.6-.8 1-1.5 2.1-1.5 2.5 0 .4-.9 2-2.1 3.7-1.1 1.6-2.6 4.1-3.2 5.5-1.8 3.6-3.6 6.6-5 8.2-.6.8-.9 1.8-.5 2.1.3.4.1.7-.5.7-.7 0-1.2.7-1.2 1.5s-.5 1.5-1.1 1.5c-.5 0-.7.4-.4 1 .3.5.1 1-.5 1s-.8.4-.5 1c.3.5.1 1-.4 1-.6 0-1.1.7-1.1 1.5s-.5 1.5-1.1 1.5c-.5 0-.8.4-.5.9.3.5-.1 1.4-.9 2.1-.8.7-1.5 1.9-1.5 2.6 0 .8-.5 1.4-1 1.4-.6 0-.9.3-.8.7.2.8-2.1 5.5-3.1 6.3-.4.3-1.2 1.8-1.9 3.4l-1.3 2.8-1.9-2.4c-1-1.4-2-3.1-2.2-3.9-.2-.7-1.1-2.2-2-3.3-1-1.1-1.8-2.6-1.8-3.3 0-.7-.5-1.3-1.1-1.3-.5 0-.7-.5-.4-1 .3-.6.1-1-.4-1-.6 0-1.1-.6-1.1-1.4 0-.7-.7-1.9-1.5-2.6-.8-.7-1.2-1.6-.9-2.1.3-.5.1-.9-.4-.9s-1.2-.8-1.5-1.8c-.4-.9-2.1-4.2-3.9-7.2-1.8-3.1-5.1-8.7-7.2-12.5-2.2-3.9-4.4-7.2-4.8-7.3-.4-.2-.6-.7-.4-1.1.3-.3-.3-1.6-1.2-2.8-1.7-2.2-1.7-2.2-4.4 2.7zM857 312v75.9H91V236.1h766V312zm-2.6 118c-.1 7.4-.2 13.7-.3 14-.1.7-762.1.7-762.2 0-.6-2.1-.3-26.6.2-27 .4-.3 172.1-.5 381.6-.5h380.8l-.1 13.5zM477.5 586.7c-.1 61.7-.3 112.5-.7 112.8-.4.4-365.8.9-383.8.5-1.3 0-1.5-13.2-1.5-112.3 0-87 .3-112.3 1.2-112.7.7-.3 87.5-.5 193-.5h191.8v112.2zm378-111.5c.5.5.9 14.6.5 20.6 0 .4-66.3.7-147.3.7H561.4l.1-11v-11h146.7c80.7 0 147 .3 147.3.7zm.3 41.5l.3 11.3H562v-23l146.8.2 146.7.3.3 11.2zm.2 31.3v11H562v-22h294v11zm-1.5 32.5v11H708.7c-80.3 0-146.2-.2-146.6-.5-.4-.3-.7-5.2-.7-11v-10.5h293.1v11zm1.2 21c.1 1.1.4 6 .5 11l.3 9h-295l.2-11c.1-6.1.2-11 .2-11h146.9c146 0 146.7 0 146.9 2zm-131.8 32.3c.5.8.6 12.8.2 20.2-.1 1.3-9.7 1.5-81.3 1.2l-81.3-.2.2-10c0-5.6.3-10.6.6-11.3.6-1.5 160.6-1.4 161.6.1zm131.5 93.3c.8.7.9 28.9.2 29.7-.4.3-172.4.6-382.4.6l-381.7.1v-15.2c0-12.4.3-15.3 1.4-15.5 2.6-.5 762-.2 762.5.3zm-1.3 59.6c.1 8.7-.1 13.6-.5 14.1-.4.4-760.9.2-761.3-.2-.4-.4-.5-8.1-.4-18.9l.1-3.7h762l.1 8.7zm.1 32c.2 2.7.2 7.8 0 11.5l-.4 6.8H338.1c-135 0-245.6-.2-245.9-.5-.4-.4-.5-5.6-.3-18.8l.1-3.7h761.9l.3 4.7z"/><path d="M304.4 265.6c-10.3 7-20.2 16.8-23.5 23.2-3.2 6.3-3.3 16.8-.2 22.7 5.2 9.9 16.9 19.5 29.8 24.6 3.7 1.5 3.4 1.4 7 2.3 3.8 1 4.9 1.3 5.5 1.6.3.2 5.2 1 11 1.9 10.7 1.7 28.9 2.1 34.8.7 2-.5 3.2-.4 3.2.2 0 1.3-19 8.7-25 9.7-7.3 1.3-25.1 1.5-30.7.4-6.4-1.3-9.3-4.4-9.3-10 0-4.7-1.9-4.4-5 .6-3 4.9-2.6 8.2 1.5 12.1 4.7 4.4 11.9 5.9 25 5 19.5-1.2 39.5-7.7 58.4-19 9.2-5.5 20.1-15.2 20.1-17.9 0-2-5.7-7.7-7.8-7.7-.8 0-1.2.9-1 2.2.2 1.8-.5 2.7-3.2 4-4.3 2.1-11 3.2-11 1.8 0-.6.5-1 1.1-1 1.4 0 6.7-5.9 8.4-9.5 3.5-7.3 3.4-16.5-.3-22.5-9-14.6-26.8-17.1-38.5-5.5-8.8 8.7-10 20.8-3.1 31 1.4 2.1 2.3 4 2 4.3-.8.8-7.5-1.6-13.2-4.7-5.6-3-7.1-6.4-3.3-7.6 2.3-.8 5.6-3.4 4.5-3.6-2.2-.5-3.7-.3-8.6.8-8.1 2-10 3.2-10 6.3 0 6 11.8 11.7 32.5 15.6 2.2.4 4.7.9 5.5 1.1.8.1 5.7.5 10.8.7 9.7.4 13.8 1.5 6.1 1.7-16 .4-25-.2-39.9-2.5-6-1-20.7-5.9-27-9.1-15.8-8-21.6-23-14.7-37.8 2.5-5.5 8.2-13.8 10-14.5.8-.4 3-4.2 2.4-4.2-.2 0-2.2 1.2-4.3 2.6zm82.7 27.5c1.1.5 1.9 1.6 1.9 2.4 0 .7.6 1.5 1.3 1.8.9.3.9.7 0 1.9-.7.8-1 1.8-.6 2.1.3.4.1.7-.6.7-.8 0-.7.5.3 1.6 2.4 2.4 1.7 6.9-1.5 8.8-2.7 1.6-10.8 2.4-12.6 1.3-1.3-.8-1.3-20.9-.1-21.8 1.2-.8 9.8 0 11.9 1.2zm-27.7 7.2c-.2 7.3-.1 7.9 2.1 8.9 1.5.7 2.8.7 4.2 0 1.6-.9 1.9-2.1 1.8-8.7-.1-5.9.2-7.8 1.3-8.3 2.6-1 3.9 2.4 3.6 9.3-.2 3.5-.8 7.4-1.4 8.5-2.1 4-10.2 5.9-12.1 2.9-.3-.6-.9-1-1.3-1-.3.1-.6-.2-.5-.5 0-.4-.4-1-1-1.4-1.1-.6-1.5-5.9-1.2-14.2.1-3.3.4-3.8 2.4-3.6 2.2.2 2.3.5 2.1 8.1z"/><path d="M378.7 298.4c.6 3.1 5.7 3 6.1-.1.3-1.8-.2-2.1-3.1-2.1-3 0-3.3.3-3 2.2zM379 307.5c0 2.1.4 2.5 2.8 2.3 6-.4 6.6-4.8.6-4.8-3 0-3.4.3-3.4 2.5zM614.5 276.5c-15.3 2.9-20.6 8.6-24.5 26.1-6 26.9-6.5 30.5-4.5 34.4 4.1 7.9 16.3 11.3 29.8 8.3 7.2-1.6 10.6-3.3 14.7-7.4 4.5-4.6 5.9-8.6 10.7-30.9 4-18.8 3.4-23.3-3.9-27.8-4.6-2.9-14.9-4.1-22.3-2.7zm6 12.5c.6 1-1 12.2-2.2 15-.3.8-.7 1.9-.8 2.5-.9 6.9-1.9 11.2-2.7 12.2-.6.7-.8 1.3-.5 1.3.7 0-1.1 7.9-2.6 11.2-1.4 3.2-4.7 3.8-4.7.9 0-1.1.7-5.3 1.6-9.3 2-9.5 1.9-9.1 3.9-17.3.9-3.9 1.9-8.4 2.2-10 .8-5.3 4.2-9.1 5.8-6.5zM425.6 278.7c-.3 1-1.7 7.2-3.1 13.8-1.5 6.6-2.8 12.9-3.1 14-.2 1.1-2.2 9.9-4.3 19.5-2.2 9.6-3.7 17.8-3.5 18.2.3.5 5.4.8 11.4.8 10.5 0 11-.1 11.5-2.3.3-1.2 1.4-6.3 2.6-11.2 1.1-5 2.2-9.7 2.4-10.5.2-.8.4-2.1.4-2.8.1-.8 2.1-1.2 6.5-1.2 6.9 0 7.9-.7 8.6-5.5 1-8 1-8-4.5-8.1-2.7-.1-5.5-.2-6.1-.3-1.3-.1.1-8.9 1.7-10.5.4-.5 3.8-1 7.5-1 4.9-.1 6.9-.5 7.4-1.6 1.3-2.7 3-11.1 2.5-12.1-.4-.5-8.8-.9-19-.9-16.6 0-18.4.2-18.9 1.7zM468.6 277.8c-.3.5-.7 1.9-1 3.3-.9 4.5-2.7 13.4-3 14.4-.1.5-.9 3.7-1.6 7-.8 3.3-1.4 6.2-1.5 6.5-.1.3-.5 2.3-.9 4.5-.5 2.2-2.1 9.5-3.7 16.3-1.6 6.8-2.9 13-2.9 13.8 0 1.1 2.1 1.4 11 1.4 9.4 0 11.1-.2 11.9-1.8.8-1.5 1.8-5.9 5.6-23.7 2.9-14 6.8-31.3 7.9-35.5.7-2.5 1.1-5.1.8-5.8-.4-1.4-21.7-1.8-22.6-.4zM498.5 278.9c-.3 1.1-.8 3-1.1 4.3-1.4 6.7-2.5 11.9-3.9 17.8-1.4 5.8-3.6 16-5.1 23-.3 1.4-1.4 6.2-2.4 10.8-1.1 4.6-2 8.8-2 9.3s7.7.9 18 .9h17.9l1-3.8c1.8-7.2 2.3-10.2 1.4-10.3-.4-.1-3.1-.2-6-.3-2.8 0-5.4-.4-5.7-.7-.3-.3 0-2.8.8-5.5.7-2.7 2.1-8.5 3-12.9 1.8-8.5 4.1-18.5 6.2-27.4.7-3 1.1-5.8.8-6.3-.3-.4-5.4-.8-11.4-.8-9.8 0-10.9.2-11.5 1.9zM539.5 278.2c-.2.7-2.9 12.8-6 26.8-6.5 29.5-6 27.2-7.4 33-1.7 7.4-2.2 7 9.8 7 10.3 0 12.3-.5 12.6-3 .1-.5 1.7-8.1 2-9 .1-.3.5-2.4.9-4.8.9-4.7 2.6-5.7 2.7-1.5 0 3.6.8 10.9 1.5 15l.5 3.3h11.4c13.4 0 12.5 1.2 10.1-13-4.5-26.3-5.1-22.4 5.7-39.2 5.2-8.1 9.2-14.9 8.9-15.2-.3-.3-5-.6-10.4-.6H572l-4.6 7.2c-2.5 3.9-5.1 8.2-5.7 9.5-.5 1.2-1.4 2.3-1.9 2.3-1 0-.6-3.3 1.6-12.2.7-3.2 1.1-6 .8-6.3-.3-.3-5.4-.5-11.4-.5-7.8 0-11 .4-11.3 1.2zM654.5 278.7c-.4 1-.9 2.9-1.1 4.3-.3 1.4-1.4 6.5-2.5 11.5-1.2 4.9-2.3 10.1-2.5 11.5-.3 1.4-2.3 10.4-4.5 20-2.1 9.6-3.5 17.8-3.1 18.2.5.5 4.9.8 9.8.6l8.9-.3 1.2-3.8c.7-2.1 1.5-5.3 1.9-7 .3-1.8 1-5 1.5-7.2s1.2-5.4 1.5-7.2c.3-1.8.9-4.5 1.4-6 .7-2.2.9-2.4 1-.8.1 1.1.2 2.2.2 2.5 0 .3-.3 7.1-.7 15.3l-.7 14.7H681l1.8-3.8c1-2 3.6-8.3 5.7-14 2.1-5.6 4.3-10.2 4.8-10.2s.7 1.2.3 2.7c-5.1 23.1-5.3 24.5-4.2 24.9.7.3 5.3.4 10.1.2l8.9-.3 6.7-30c3.7-16.5 6.8-31.7 6.8-33.8l.1-3.8-14.2.3-14.2.3-4.5 11.7c-2.4 6.5-4.8 11.8-5.1 11.8-.4 0-.7-5.3-.6-11.8l.1-11.7-14.1-.3c-12.8-.2-14.2-.1-14.9 1.5zM411.6 353.6c-.3.9-.6 2.7-.6 4.1 0 2.5 0 2.6 2 .8 1.1-1 2-2.4 2-3.2 0-.7.9-1.3 2.1-1.3 1.1 0 1.7-.5 1.4-1-1-1.6-6.2-1.2-6.9.6zM425.3 355.3c-2.7 4-2.9 5.1-.6 3.8 1-.5 2.6-.5 4 0 2 .7 2.3.5 2.3-1.4-.1-2-2.1-5.7-3.1-5.7-.2 0-1.4 1.5-2.6 3.3zM438.6 354.2c-1 3.9-.8 6.4.6 5 .8-.8 1.7-.8 3-.1 2.5 1.3 3.5.4 1.8-1.6-1-1.2-1-1.8 0-3 1.6-1.9.5-3.2-1.3-1.7-.9.8-1.7.8-2.4.1-.7-.7-1.2-.3-1.7 1.3zM452.8 353.3c-.2.6-.4 2.3-.4 3.7.1 2.1.7 2.6 3.3 2.8 2.7.3 3.5-.1 4.4-2.2.7-1.3.8-3.3.5-4.3-.6-1.5-1-1.3-2.2 1.5-1.5 3.6-4.1 3.9-3.6.4.3-2.2-1.3-3.9-2-1.9zM480 353c0 .5.5 1 1 1 .6 0 1 1.1 1 2.4 0 2.4 1.9 4.7 2.1 2.7.1-.6.3-1.6.4-2.1.1-.6.3-1.5.4-2 0-.6.8-1 1.7-1 .8 0 1.2-.5.9-1-.3-.6-2.2-1-4.1-1-1.9 0-3.4.4-3.4 1zM495.4 353.4c-1.3 1.4-3.4 5.2-3.4 6.1 0 .3.9.1 2-.5 1.4-.7 2.6-.8 3.9 0 2.6 1.4 3.1.2 1.5-3.8-1.5-3.5-2.3-3.8-4-1.8zM508 353.7c0 1-.3 2.8-.6 4-.6 2.1-.3 2.3 3 2.3 2 0 3.7-.3 3.7-.8 1.1-7.1 1.1-7.2-2.6-7.2-2.7 0-3.5.4-3.5 1.7zM532.6 352.7c-.3.3-.6 2.2-.6 4.2 0 4 1.6 3.2 2.4-1.1.5-2.7-.5-4.4-1.8-3.1zM542.3 353.1c-.7.7-1.3 2.6-1.3 4.1 0 2.4.4 2.8 2.9 2.8 3.5 0 4.9-1.5 2.2-2.3-1.2-.3-2.1-1.5-2.3-3.1-.2-2.2-.5-2.5-1.5-1.5zM555.1 354.3c-.7 1.9-.8 3.4-.1 4.5.5.9 1 1.2 1 .6 0-1.5 5-1.5 5-.1 0 .6.7.4 1.6-.5.9-.9 1.4-2.7 1.2-4.4-.3-2.6-.4-2.7-2-1.1-2.1 2.1-2.8 2.1-4.4-.1-1.1-1.6-1.3-1.5-2.3 1.1zM572.3 352.7c-.7.2-1.3 2-1.3 3.9 0 2.9.3 3.4 2.4 3.4 4.4 0 5.6-1 5.6-4.8 0-3.7-1.5-3.5-2.2.3-.2 1.1-1.2 2.1-2.2 2.3-1.5.3-1.7-.1-1.1-2.7.4-1.7.5-3.1.3-3-.2 0-.9.3-1.5.6zM596.1 355.1c-.9 2.5-.8 3.4.1 4.1.7.4 1.4.3 1.6-.2.2-.6 1.1-.6 2.4.1 2.6 1.4 3.3.6 1.2-1.5-1.5-1.6-1.5-1.8.2-3.1 1.1-.7 1.6-1.7 1.2-2.1-.4-.4-1.4-.2-2.1.4-.9.8-1.7.8-2.4.1-.7-.7-1.4-.1-2.2 2.2zM610.3 354.3c-1.5 3.3.1 5.7 3.8 5.7 2.1 0 3.2-.7 4.1-2.4 1.6-3.7.4-5.6-3.5-5.6-2.6 0-3.6.6-4.4 2.3zm6 .3c.9 1-.4 3.4-1.8 3.4-1.7 0-2.8-1.7-2-3 .7-1.1 2.8-1.3 3.8-.4zM626.7 352.7c-.3.5-.8 2.1-1.1 3.6-.5 3 1.1 4.7 2 2.2.5-1.2.9-1.3 2-.4s1.4.8 1.4-.2c0-.8.6-.5 1.5.7.8 1 1.5 1.7 1.5 1.4 0-.3.3-2.2.6-4.2.5-3.2.3-3.7-1-3.2-.9.3-1.6 1-1.6 1.5 0 1.5-2.2 1-3.5-.8-.7-.9-1.5-1.2-1.8-.6zM642.1 355.2c-1.3 3.7-.7 4.7 2 3 1.1-.7 2.4-1 2.8-.7 1.3.8 3.4-2.3 2.7-4-.3-.9-1.8-1.5-3.5-1.5-2.4 0-3.1.6-4 3.2zm5.1-.7c0 .5-.5 1.1-1.1 1.3-.6.2-1.1-.4-1.1-1.3s.5-1.5 1.1-1.3c.6.2 1.1.8 1.1 1.3zM657 353.4c-.6.8-1 2.5-.8 3.8.2 1.9.9 2.3 3.8 2.3 2.8 0 3.5-.4 4-2.5.4-1.4.5-3.1.2-3.7-.7-2-2.2-.4-2.2 2.3 0 1.9-.5 2.5-1.7 2.2-1.3-.2-1.7-1.1-1.5-3.1.4-3.1 0-3.3-1.8-1.3zM671 353c0 .5.5 1 1 1 .6 0 1 .6.9 1.2-.1.7-.1 2.1 0 3.1.1 2.4 2.1 1.1 2.1-1.4 0-1.1.7-2.2 1.5-2.5 2.7-1.1 1.6-2.4-2-2.4-1.9 0-3.5.4-3.5 1zM684.4 353.2c-.5.7-.9 2.4-.9 3.8 0 2.1.5 2.6 3.2 2.8 3.2.3 3.3.2 2.7-2.7-.4-2-.2-3.1.5-3.1.6 0 1.1-.5 1.1-1 0-1.4-5.6-1.2-6.6.2zM698 353.9c0 1.1-.3 2.6-.6 3.5-.4 1.1-.1 1.6 1 1.6.9 0 1.6-.6 1.6-1.3 0-.9.2-.9.8 0 .9 1.5 3.6 2.1 3.7.8.1-.6.5-1.8.9-2.7 1.2-2.6-.1-3.8-4-3.8-2.7 0-3.4.4-3.4 1.9zm5.5 1.1c-.3.5-1 1-1.6 1-.5 0-.9-.5-.9-1 0-.6.7-1 1.6-1 .8 0 1.2.4.9 1zM467.8 353.7c-.2.5-.3 1.9-.3 3.3 0 2.1.5 2.6 3.3 2.8 1.8.2 3.2-.1 3.2-.7s-.9-1.1-2.1-1.1c-1.8 0-2-.4-1.5-2.5.5-1.8.2-2.5-.8-2.5-.8 0-1.6.3-1.8.7z"/></svg>